<?xml version="1.0" encoding="utf-8"?>
<!-- Generator: Adobe Illustrator 27.9.0, SVG Export Plug-In . SVG Version: 6.00 Build 0)  -->
<svg version="1.1" id="Layer_1" xmlns="http://www.w3.org/2000/svg" xmlns:xlink="http://www.w3.org/1999/xlink" x="0px" y="0px"
	 viewBox="0 0 785.5 754.8" style="enable-background:new 0 0 785.5 754.8;" xml:space="preserve">
<style type="text/css">
	.st0{fill:#E6E6E6;}
</style>
<path class="st0" d="M142.5,170.2l88.9-0.8c18.8,0,35.9,0.4,51.3,1.1c41.2,1.1,72.5,10.8,94,29.1c21.5,18.3,32.3,44.1,32.3,77.3
	c0,23.1-6.7,42.8-20.2,59.1c-13.5,16.3-33.1,30.7-59,43.1c41,12.9,65.8,44.3,74.5,94.2c2,10.9,3.6,23.4,4.9,37.4
	c1.2,14,2.2,23.5,2.9,28.3l2.8,14.1c3,16.6,5.5,28.6,7.8,36l-1.1,0.8c-31.4,2-60.1,3-86,3s-48.9-0.5-68.8-1.4H265
	c-5.7,0-11.8-27.2-18.3-81.7l-1.4-11.9c-0.7-20.3-4.3-34-10.7-41c-6.4-7-17.4-10.5-33.1-10.5l-3.6,0.3h-14.7v84.2l0.3,8.9V745
	c-0.6,1.8-1.9,3-4.2,3.3c-20.3,0.7-49,1.1-86,1.1s-61.5,0.1-73.3,0.3l-1.7-0.5l-0.6,0.3c-0.4,0-0.9-0.3-1.7-0.8l0.6-24.9l-0.3-8.3
	l1.1-269.5v-20.2l0.3-20.8l0.3-71.8l0.3-9.4l-0.8-62.9l1.1-88.4c0-1.5,5.3-2.2,15.8-2.2l17.7,0.3h16.9l35.2,0.3L142.5,170.2
	L142.5,170.2z M245,260.5c-11.1-4.8-25.9-7.2-44.3-7.2h-16.1c-2,3-3.1,18.5-3.1,46.7s0.5,47,1.4,56.6c57.8-1.3,86.7-21.2,86.7-59.8
	C269.7,280.4,261.5,268.3,245,260.5L245,260.5z M422.9,589.1v0.3c-0.2,0-0.3-0.1-0.3-0.3H422.9z M424.3,588.3l-1.4,0.8v-0.6
	C422.9,588.3,423.3,588.3,424.3,588.3L424.3,588.3z"/>
<path class="st0" d="M395.6,400.9c0-37.5,1-63.5,3-78.1c0-80.3,1.1-161.3,3.3-242.9c-0.5-11.6-0.8-23.4-0.8-35.2v-9.1
	c-0.7-5.7-1.1-10.8-1.1-15.2s-1.5-14.3-0.6-15.6c2.2-3,40.1,1.9,46.2,2c24.1,0.3,47.9-3.5,71.8-6.2C542-2.4,567.2,10.8,567.9,39
	c0.9,37.3-2.1,75.2-2.1,112.6c0.5,57.4,1,114.9,1.5,172.3c0.1,6.7,0.2,13.4,0.2,20.1c0,1.7,0.3,3,0.8,4.2v0.5
	c0.5,1.1,0.8,2.3,0.8,3.6l2.2,80.6c-0.9,2-2.6,3.6-5,4.7h-9.4l-155.1,2.5c-1.9-0.9-4.2-2.3-7.2-4.2l0.3-4.7L395.6,400.9L395.6,400.9
	z"/>
<path class="st0" d="M777.8,363l-0.8,55.4v3.6c-2.8,18.5-23,48.2-60.7,89.2L695,534.5c-23.8,28.1-43.1,51.2-57.9,69.3l-31.6,38.5
	h14.7l160.7-2.2c2.8,0,4.2,16.4,4.2,49.3v31l0.6,18c0,5.9-1.2,9.7-3.5,11.2c-2.3,1.6-6.4,2.4-12.3,2.4h-7.2l-332.1,2.8
	c-5.2,0-9-0.5-11.6-1.7c-2.6-1.1-5.3-3.7-8-7.8c0-50.4-0.6-81.8-1.9-94.2l4.4-3.6l39.1-47.4c57.2-71.7,101.7-126.4,133.2-164.3
	l-81.7,0.8l-20.5,0.5c-20.1,0.5-40.4,0.8-60.7,0.8c-2-1.1-2.9-3.9-2.6-8.3s0.2-7.9-0.1-10.5V414l0.3-2.2v-16.3l-2.5-63.4l0.3-1.7
	c0.4,0,1.2,0.4,2.5,1.1h54.4c31.5,0,106.5-0.9,225.1-2.8l60.1-0.8c6.3,0.2,10.9,1.3,13.8,3.5c3,2.1,4.4,6.6,4.4,13.4l-0.5,15.5
	L777.8,363L777.8,363z"/>
</svg>
